<svg width="17" height="22" viewBox="0 0 17 22" fill="none" xmlns="http://www.w3.org/2000/svg">
    <path d="M16 13.2505V10.6255C16 9.73038 15.6444 8.87194 15.0115 8.239C14.3786 7.60607 13.5201 7.25049 12.625 7.25049H11.125C10.8266 7.25049 10.5405 7.13196 10.3295 6.92098C10.1185 6.71 10 6.42386 10 6.12549V4.62549C10 3.73038 9.64442 2.87194 9.01149 2.239C8.37855 1.60607 7.52011 1.25049 6.625 1.25049H4.75M4.75 14.0005H12.25M4.75 17.0005H8.5M7 1.25049H2.125C1.504 1.25049 1 1.75449 1 2.37549V19.6255C1 20.2465 1.504 20.7505 2.125 20.7505H14.875C15.496 20.7505 16 20.2465 16 19.6255V10.2505C16 7.86354 15.0518 5.57435 13.364 3.88653C11.6761 2.1987 9.38695 1.25049 7 1.25049Z" stroke="black" stroke-width="1.5" stroke-linecap="round" stroke-linejoin="round"/>
</svg>
