<svg width="20" height="21" viewBox="0 0 20 21" fill="none" xmlns="http://www.w3.org/2000/svg">
    <path d="M6.95367 15.929V16.936C6.95372 17.3301 6.87612 17.7203 6.7253 18.0844C6.57447 18.4485 6.35339 18.7793 6.07467 19.058L5.45367 19.679H14.4537L13.8327 19.058C13.554 18.7793 13.3329 18.4485 13.1821 18.0844C13.0312 17.7203 12.9536 17.3301 12.9537 16.936V15.929M18.9537 3.92896V13.679C18.9537 14.2757 18.7166 14.848 18.2947 15.2699C17.8727 15.6919 17.3004 15.929 16.7037 15.929H3.20367C2.60694 15.929 2.03464 15.6919 1.61268 15.2699C1.19073 14.848 0.953674 14.2757 0.953674 13.679V3.92896M18.9537 3.92896C18.9537 3.33222 18.7166 2.75992 18.2947 2.33796C17.8727 1.91601 17.3004 1.67896 16.7037 1.67896H3.20367C2.60694 1.67896 2.03464 1.91601 1.61268 2.33796C1.19073 2.75992 0.953674 3.33222 0.953674 3.92896M18.9537 3.92896V10.679C18.9537 11.2757 18.7166 11.848 18.2947 12.2699C17.8727 12.6919 17.3004 12.929 16.7037 12.929H3.20367C2.60694 12.929 2.03464 12.6919 1.61268 12.2699C1.19073 11.848 0.953674 11.2757 0.953674 10.679V3.92896" stroke="#000000" stroke-width="1.5" stroke-linecap="round" stroke-linejoin="round"/>
</svg>
