<svg width="16" height="4" viewBox="0 0 16 4" fill="none" xmlns="http://www.w3.org/2000/svg">
    <path d="M2.70367 1.67896C2.70367 1.87787 2.62466 2.06863 2.484 2.20928C2.34335 2.34994 2.15259 2.42896 1.95367 2.42896C1.75476 2.42896 1.564 2.34994 1.42334 2.20928C1.28269 2.06863 1.20367 1.87787 1.20367 1.67896C1.20367 1.48004 1.28269 1.28928 1.42334 1.14863C1.564 1.00797 1.75476 0.928955 1.95367 0.928955C2.15259 0.928955 2.34335 1.00797 2.484 1.14863C2.62466 1.28928 2.70367 1.48004 2.70367 1.67896ZM8.70367 1.67896C8.70367 1.87787 8.62466 2.06863 8.484 2.20928C8.34335 2.34994 8.15259 2.42896 7.95367 2.42896C7.75476 2.42896 7.564 2.34994 7.42334 2.20928C7.28269 2.06863 7.20367 1.87787 7.20367 1.67896C7.20367 1.48004 7.28269 1.28928 7.42334 1.14863C7.564 1.00797 7.75476 0.928955 7.95367 0.928955C8.15259 0.928955 8.34335 1.00797 8.484 1.14863C8.62466 1.28928 8.70367 1.48004 8.70367 1.67896ZM14.7037 1.67896C14.7037 1.87787 14.6247 2.06863 14.484 2.20928C14.3434 2.34994 14.1526 2.42896 13.9537 2.42896C13.7548 2.42896 13.564 2.34994 13.4233 2.20928C13.2827 2.06863 13.2037 1.87787 13.2037 1.67896C13.2037 1.48004 13.2827 1.28928 13.4233 1.14863C13.564 1.00797 13.7548 0.928955 13.9537 0.928955C14.1526 0.928955 14.3434 1.00797 14.484 1.14863C14.6247 1.28928 14.7037 1.48004 14.7037 1.67896Z" stroke="#000000" stroke-width="1.5" stroke-linecap="round" stroke-linejoin="round"/>
</svg>
