<svg width="22" height="19" viewBox="0 0 22 19" fill="none" xmlns="http://www.w3.org/2000/svg">
    <path d="M6.82867 11.929L8.04267 13.871C8.24487 14.1947 8.52608 14.4616 8.85986 14.6467C9.19364 14.8318 9.56901 14.9289 9.95067 14.929H11.9567C12.7327 14.929 13.4537 14.529 13.8647 13.871L15.0787 11.929M1.36367 6.67896H5.99967C6.37007 6.67898 6.73474 6.77045 7.0613 6.94525C7.38787 7.12004 7.66623 7.37275 7.87167 7.68095L8.03567 7.92696C8.24112 8.23516 8.51948 8.48787 8.84605 8.66266C9.17261 8.83746 9.53727 8.92893 9.90767 8.92896H11.9997C12.3701 8.92893 12.7347 8.83746 13.0613 8.66266C13.3879 8.48787 13.6662 8.23516 13.8717 7.92696L14.0357 7.68095C14.2411 7.37275 14.5195 7.12004 14.846 6.94525C15.1726 6.77045 15.5373 6.67898 15.9077 6.67896H20.5437M1.36367 6.67896C1.25814 6.94365 1.20384 7.22599 1.20367 7.51095V9.67896C1.20367 10.2757 1.44073 10.848 1.86268 11.2699C2.28464 11.6919 2.85694 11.929 3.45367 11.929H18.4537C19.0504 11.929 19.6227 11.6919 20.0447 11.2699C20.4666 10.848 20.7037 10.2757 20.7037 9.67896V7.51095C20.7037 7.22395 20.6487 6.94096 20.5437 6.67896M1.36367 6.67896C1.45533 6.44869 1.5844 6.23515 1.74567 6.04696L5.03067 2.21495C5.24184 1.96851 5.50382 1.77067 5.79864 1.635C6.09346 1.49933 6.41414 1.42904 6.73867 1.42896H15.1687C15.8257 1.42896 16.4497 1.71595 16.8777 2.21495L20.1617 6.04696C20.3247 6.23696 20.4527 6.45096 20.5437 6.67896M3.45367 17.929H18.4537C19.0504 17.929 19.6227 17.6919 20.0447 17.2699C20.4666 16.848 20.7037 16.2757 20.7037 15.679V13.054C20.7037 12.433 20.1997 11.929 19.5787 11.929H2.32867C1.70767 11.929 1.20367 12.433 1.20367 13.054V15.679C1.20367 16.2757 1.44073 16.848 1.86268 17.2699C2.28464 17.6919 2.85694 17.929 3.45367 17.929Z" stroke="#000000" stroke-width="1.5" stroke-linecap="round" stroke-linejoin="round"/>
</svg>
