<svg width="36" height="36" viewBox="0 0 36 36" fill="none" xmlns="http://www.w3.org/2000/svg">
    <path fill-rule="evenodd" clip-rule="evenodd" d="M27.8437 12.3751C27.8437 12.8411 27.466 13.2189 27 13.2189L8.99999 13.2189C8.534 13.2189 8.15624 12.8411 8.15624 12.3751C8.15624 11.9091 8.534 11.5314 8.99999 11.5314L27 11.5314C27.466 11.5314 27.8437 11.9091 27.8437 12.3751Z" fill="white"/>
    <path fill-rule="evenodd" clip-rule="evenodd" d="M27.8437 18.0002C27.8437 18.4662 27.466 18.844 27 18.844L8.99999 18.844C8.534 18.844 8.15624 18.4662 8.15624 18.0002C8.15624 17.5343 8.534 17.1565 8.99999 17.1565L27 17.1565C27.466 17.1565 27.8437 17.5343 27.8437 18.0002Z" fill="white"/>
    <path fill-rule="evenodd" clip-rule="evenodd" d="M27.8437 23.6249C27.8437 24.0909 27.466 24.4686 27 24.4686L8.99999 24.4686C8.534 24.4686 8.15624 24.0909 8.15624 23.6249C8.15624 23.1589 8.534 22.7811 8.99999 22.7811L27 22.7811C27.466 22.7811 27.8437 23.1589 27.8437 23.6249Z" fill="white"/>
    <rect opacity="0.5" x="0.5" y="0.5" width="35" height="35" rx="4" stroke="white"/>
</svg>
