<svg width="20" height="21" viewBox="0 0 20 21" fill="none" xmlns="http://www.w3.org/2000/svg">
    <path d="M9.95367 4.67895V10.679H14.4537M18.9537 10.679C18.9537 11.8609 18.7209 13.0312 18.2686 14.1231C17.8163 15.215 17.1534 16.2072 16.3176 17.0429C15.4819 17.8786 14.4898 18.5416 13.3978 18.9939C12.3059 19.4462 11.1356 19.679 9.95367 19.679C8.77178 19.679 7.60145 19.4462 6.50952 18.9939C5.41759 18.5416 4.42544 17.8786 3.58971 17.0429C2.75399 16.2072 2.09105 15.215 1.63876 14.1231C1.18647 13.0312 0.953674 11.8609 0.953674 10.679C0.953674 8.29201 1.90189 6.00282 3.58971 4.31499C5.27754 2.62717 7.56673 1.67896 9.95367 1.67896C12.3406 1.67896 14.6298 2.62717 16.3176 4.31499C18.0055 6.00282 18.9537 8.29201 18.9537 10.679Z" stroke="#000000" stroke-width="1.5" stroke-linecap="round" stroke-linejoin="round"/>
</svg>
