<svg width="22" height="19" viewBox="0 0 22 19" fill="none" xmlns="http://www.w3.org/2000/svg">
    <path d="M19 4.75049L18.375 15.3825C18.3413 15.9555 18.0899 16.494 17.6722 16.8878C17.2545 17.2815 16.702 17.5007 16.128 17.5005H5.372C4.79796 17.5007 4.24555 17.2815 3.82783 16.8878C3.41011 16.494 3.15868 15.9555 3.125 15.3825L2.5 4.75049M10.75 7.75049V14.5005M10.75 14.5005L7.75 11.5005M10.75 14.5005L13.75 11.5005M2.125 4.75049H19.375C19.996 4.75049 20.5 4.24649 20.5 3.62549V2.12549C20.5 1.50449 19.996 1.00049 19.375 1.00049H2.125C1.504 1.00049 1 1.50449 1 2.12549V3.62549C1 4.24649 1.504 4.75049 2.125 4.75049Z" stroke="black" stroke-width="1.5" stroke-linecap="round" stroke-linejoin="round"/>
</svg>
