<svg width="76" height="75" viewBox="0 0 76 75" fill="none" xmlns="http://www.w3.org/2000/svg">
    <path d="M23.152 37.5C23.152 36.2056 24.2013 35.1563 25.4957 35.1563H50.4957C51.7902 35.1563 52.8395 36.2056 52.8395 37.5C52.8395 38.7944 51.7902 39.8438 50.4957 39.8438H25.4957C24.2013 39.8438 23.152 38.7944 23.152 37.5Z" fill="#4B5563"/>
    <path d="M31.7457 44.5313C30.4513 44.5313 29.402 45.5806 29.402 46.875C29.402 48.1694 30.4513 49.2188 31.7457 49.2188H44.2457C45.5402 49.2188 46.5895 48.1694 46.5895 46.875C46.5895 45.5806 45.5402 44.5313 44.2457 44.5313H31.7457Z" fill="#4B5563"/>
    <path fill-rule="evenodd" clip-rule="evenodd" d="M46.3226 7.27871C47.4804 6.69983 48.8882 7.16911 49.4671 8.32687L55.1336 19.66C56.4697 19.7279 57.688 19.8317 58.7921 19.9902C62.0912 20.4639 64.8218 21.4822 66.7624 23.8827C68.703 26.2832 69.1266 29.1665 68.8985 32.4917C68.6774 35.7141 67.8066 39.7778 66.7179 44.8579L65.3072 51.4414C64.573 54.8677 63.9775 57.6471 63.228 59.8184C62.447 62.0811 61.4175 63.9419 59.6593 65.3633C57.901 66.7847 55.8658 67.4014 53.4897 67.691C51.2096 67.9689 48.3671 67.9688 44.8629 67.9688H31.1288C27.6247 67.9688 24.7821 67.9689 22.502 67.691C20.1259 67.4014 18.0907 66.7847 16.3324 65.3633C14.5742 63.9419 13.5447 62.0811 12.7637 59.8184C12.0142 57.6471 11.4187 54.8677 10.6845 51.4413L9.27381 44.858C8.18514 39.7778 7.31429 35.7141 7.09325 32.4917C6.86516 29.1665 7.28876 26.2832 9.22934 23.8827C11.1699 21.4822 13.9005 20.4639 17.1996 19.9902C18.3036 19.8317 19.5219 19.7279 20.8579 19.66L26.5244 8.32687C27.1033 7.16911 28.5111 6.69983 29.6689 7.27871C30.8267 7.85759 31.2959 9.26542 30.7171 10.4232L26.1598 19.5377C27.2959 19.5312 28.4917 19.5313 29.7483 19.5313H46.2434C47.4998 19.5313 48.6958 19.5312 49.8317 19.5377L45.2744 10.4232C44.6956 9.26542 45.1648 7.85759 46.3226 7.27871ZM18.4086 24.5585L17.1494 27.0769C16.5706 28.2346 17.0398 29.6425 18.1976 30.2213C19.3554 30.8002 20.7632 30.3309 21.3421 29.1732L23.8022 24.2529C25.5847 24.2198 27.6142 24.2188 29.9394 24.2188H46.0523C48.3774 24.2188 50.4068 24.2198 52.1893 24.2529L54.6494 29.1732C55.2283 30.3309 56.6361 30.8002 57.7939 30.2213C58.9517 29.6425 59.4209 28.2346 58.8421 27.0769L57.5829 24.5585C57.7679 24.5809 57.9488 24.6047 58.1259 24.6301C60.888 25.0267 62.2434 25.7489 63.1171 26.8296C63.9907 27.9103 64.4129 29.3869 64.222 32.1709C64.0267 35.0181 63.2323 38.7525 62.0944 44.0626L60.7551 50.3126C59.982 53.9206 59.4424 56.4191 58.7971 58.289C58.1726 60.0982 57.5324 61.055 56.7124 61.718C55.8923 62.381 54.8225 62.8064 52.9226 63.0379C50.9591 63.2772 48.4029 63.2813 44.7131 63.2813H31.2787C27.5888 63.2813 25.0326 63.2772 23.0691 63.0379C21.1692 62.8064 20.0995 62.381 19.2794 61.718C18.4593 61.055 17.8191 60.0982 17.1947 58.289C16.5493 56.4191 16.0097 53.9206 15.2366 50.3126L13.8973 44.0626C12.7594 38.7525 11.9651 35.0181 11.7698 32.1709C11.5788 29.3869 12.001 27.9103 12.8746 26.8296C13.7483 25.7489 15.1037 25.0267 17.8658 24.6301C18.0428 24.6047 18.2237 24.5809 18.4086 24.5585Z" fill="#4B5563"/>
</svg>
