<svg width="26" height="26" viewBox="0 0 26 26" fill="none" xmlns="http://www.w3.org/2000/svg">
<path d="M19.4017 24.4017C20.5 23.3033 20.5 21.5355 20.5 18L20.5 13.8243C18.6542 13.1973 16.1773 12.6872 13 12.6872C9.82265 12.6872 7.34584 13.1973 5.5 13.8243V18C5.5 21.5355 5.5 23.3033 6.59835 24.4017C7.6967 25.5 9.46447 25.5 13 25.5C16.5355 25.5 18.3033 25.5 19.4017 24.4017Z" fill="#FF7A00"/>
<path d="M18 5.5H8C4.46447 5.5 2.6967 5.5 1.59835 6.59835C0.5 7.6967 0.5 9.46447 0.5 13C0.5 16.5355 0.5 18.3033 1.59835 19.4017C2.21381 20.0171 3.03946 20.2877 4.26854 20.4067C4.24996 19.7077 4.24998 18.9351 4.25 18.0882L4.25 14.303C4.16792 14.3383 4.08759 14.3735 4.009 14.4088C3.53666 14.6209 2.98183 14.4099 2.76975 13.9376C2.55767 13.4652 2.76866 12.9104 3.241 12.6983C5.39319 11.732 8.60062 10.8122 13 10.8122C17.3994 10.8122 20.6068 11.732 22.759 12.6983C23.2313 12.9104 23.4423 13.4652 23.2302 13.9376C23.0182 14.4099 22.4633 14.6209 21.991 14.4088C21.9124 14.3735 21.8321 14.3383 21.75 14.303L21.75 18.0882C21.75 18.935 21.75 19.7078 21.7315 20.4067C22.9605 20.2877 23.7862 20.0171 24.4017 19.4017C25.5 18.3033 25.5 16.5355 25.5 13C25.5 9.46447 25.5 7.6967 24.4017 6.59835C23.3033 5.5 21.5355 5.5 18 5.5Z" fill="#FF7A00"/>
<path d="M19.4011 1.59835C18.3027 0.5 16.535 0.5 12.9994 0.5C9.4639 0.5 7.69613 0.5 6.59778 1.59835C5.98232 2.21381 5.71174 3.03946 5.59277 4.26855C6.29183 4.24996 7.06451 4.24998 7.91151 4.25H18.0879C18.9347 4.24998 19.7072 4.24996 20.4061 4.26854C20.2871 3.03945 20.0165 2.21381 19.4011 1.59835Z" fill="#FF7A00"/>
</svg>
