<svg width="30" height="30" viewBox="0 0 30 30" fill="none" xmlns="http://www.w3.org/2000/svg">
<rect x="0.1" y="0.1" width="29.8" height="29.8" rx="7.9" fill="white"/>
<rect x="0.1" y="0.1" width="29.8" height="29.8" rx="7.9" stroke="#6B7280" stroke-width="0.2"/>
<path fill-rule="evenodd" clip-rule="evenodd" d="M15.0001 7.29163C13.9645 7.29163 13.1251 8.13109 13.1251 9.16663V9.38319C13.5893 9.37495 14.0987 9.37495 14.6577 9.37496H15.3424C15.9015 9.37495 16.4108 9.37495 16.8751 9.38319V9.16663C16.8751 8.13109 16.0356 7.29163 15.0001 7.29163ZM18.1251 9.4399V9.16663C18.1251 7.44074 16.7259 6.04163 15.0001 6.04163C13.2742 6.04163 11.8751 7.44074 11.8751 9.16663V9.4399C11.7561 9.45014 11.6412 9.46199 11.5301 9.47571C10.6885 9.5797 9.99462 9.79815 9.40521 10.2873C8.8158 10.7765 8.47322 11.4182 8.21591 12.2263C7.96655 13.0094 7.77779 14.0161 7.54051 15.2817L7.52327 15.3736C7.18844 17.1593 6.92457 18.5665 6.87615 19.676C6.82651 20.8131 6.99569 21.755 7.63717 22.5279C8.27865 23.3008 9.17316 23.6407 10.3 23.8015C11.3994 23.9583 12.8311 23.9583 14.6479 23.9583H15.3522C17.169 23.9583 18.6008 23.9583 19.7001 23.8015C20.827 23.6407 21.7215 23.3008 22.3629 22.5279C23.0044 21.755 23.1736 20.8131 23.124 19.676C23.0755 18.5665 22.8117 17.1593 22.4768 15.3736L22.4596 15.2817C22.2223 14.0161 22.0336 13.0094 21.7842 12.2263C21.5269 11.4182 21.1843 10.7765 20.5949 10.2873C20.0055 9.79815 19.3116 9.5797 18.47 9.47571C18.3589 9.46199 18.244 9.45014 18.1251 9.4399ZM11.6834 10.7163C10.9704 10.8044 10.5398 10.9701 10.2035 11.2492C9.86717 11.5283 9.62495 11.921 9.40698 12.6055C9.18377 13.3065 9.00814 14.2372 8.76138 15.5532C8.41495 17.4009 8.16904 18.7205 8.12496 19.7305C8.08163 20.7232 8.24085 21.298 8.59906 21.7296C8.95726 22.1612 9.49289 22.4236 10.4766 22.564C11.4773 22.7068 12.8197 22.7083 14.6996 22.7083H15.3006C17.1804 22.7083 18.5228 22.7068 19.5236 22.564C20.5072 22.4236 21.0429 22.1612 21.4011 21.7296C21.7593 21.298 21.9185 20.7232 21.8752 19.7305C21.8311 18.7205 21.5852 17.4009 21.2387 15.5532C20.992 14.2372 20.8163 13.3065 20.5931 12.6055C20.3752 11.921 20.1329 11.5283 19.7966 11.2492C19.4603 10.9701 19.0297 10.8044 18.3167 10.7163C17.5866 10.6261 16.6395 10.625 15.3005 10.625H14.6996C13.3606 10.625 12.4135 10.6261 11.6834 10.7163ZM12.6028 13.5501C12.9433 13.6069 13.1733 13.9289 13.1166 14.2694L12.2832 19.2694C12.2265 19.6099 11.9045 19.8399 11.564 19.7831C11.2235 19.7264 10.9935 19.4044 11.0502 19.0639L11.8836 14.0639C11.9403 13.7234 12.2623 13.4934 12.6028 13.5501ZM17.3973 13.5501C17.7378 13.4934 18.0598 13.7234 18.1166 14.0639L18.9499 19.0639C19.0066 19.4044 18.7766 19.7264 18.4361 19.7831C18.0957 19.8399 17.7736 19.6099 17.7169 19.2694L16.8836 14.2694C16.8268 13.9289 17.0568 13.6069 17.3973 13.5501Z" fill="#6B7280"/>
</svg>
