<svg width="40" height="40" viewBox="0 0 40 40" fill="none" xmlns="http://www.w3.org/2000/svg">
<rect x="0.5" y="0.5" width="39" height="39" rx="7.5" fill="white"/>
<rect x="0.5" y="0.5" width="39" height="39" rx="7.5" stroke="#E8E8E8"/>
<path fill-rule="evenodd" clip-rule="evenodd" d="M18.3092 10.25H21.6907C21.9071 10.2499 22.0956 10.2498 22.2736 10.2782C22.9769 10.3905 23.5855 10.8291 23.9145 11.4608C23.9977 11.6207 24.0572 11.7996 24.1255 12.0049L24.2371 12.3398C24.256 12.3965 24.2614 12.4126 24.266 12.4252C24.4411 12.9093 24.8952 13.2366 25.4098 13.2496C25.4233 13.25 25.4399 13.25 25.5 13.25H28.5C28.9142 13.25 29.25 13.5858 29.25 14C29.25 14.4143 28.9142 14.75 28.5 14.75H11.4999C11.0857 14.75 10.7499 14.4143 10.7499 14C10.7499 13.5858 11.0857 13.25 11.4999 13.25H14.5C14.56 13.25 14.5766 13.25 14.5901 13.2496C15.1048 13.2366 15.5588 12.9094 15.7339 12.4252C15.7385 12.4125 15.7438 12.3968 15.7628 12.3398L15.8744 12.005C15.9427 11.7996 16.0022 11.6207 16.0855 11.4608C16.4144 10.8291 17.023 10.3905 17.7263 10.2782C17.9043 10.2498 18.0928 10.2499 18.3092 10.25ZM17.008 13.25C17.0595 13.149 17.1052 13.044 17.1445 12.9355C17.1564 12.9025 17.1681 12.8674 17.1831 12.8223L17.2829 12.5229C17.3741 12.2494 17.3951 12.1936 17.4159 12.1536C17.5255 11.9431 17.7284 11.7969 17.9628 11.7594C18.0074 11.7523 18.0669 11.75 18.3552 11.75H21.6447C21.933 11.75 21.9926 11.7523 22.0371 11.7594C22.2715 11.7969 22.4744 11.9431 22.584 12.1536C22.6049 12.1936 22.6258 12.2494 22.717 12.5229L22.8168 12.8222L22.8555 12.9355C22.8947 13.0441 22.9404 13.149 22.9919 13.25H17.008Z" fill="#6B7280"/>
<path d="M13.915 16.4502C13.8874 16.0369 13.53 15.7241 13.1167 15.7517C12.7034 15.7793 12.3907 16.1366 12.4183 16.5499L12.8817 23.5017C12.9672 24.7844 13.0363 25.8205 13.1983 26.6336C13.3667 27.4789 13.6531 28.185 14.2447 28.7385C14.8363 29.2919 15.5598 29.5308 16.4145 29.6425C17.2365 29.7501 18.2749 29.7501 19.5605 29.75H20.4394C21.7249 29.7501 22.7634 29.7501 23.5854 29.6425C24.4401 29.5308 25.1636 29.2919 25.7552 28.7385C26.3468 28.185 26.6333 27.4789 26.8017 26.6336C26.9636 25.8206 27.0327 24.7844 27.1182 23.5017L27.5816 16.5499C27.6092 16.1366 27.2965 15.7793 26.8832 15.7517C26.4699 15.7241 26.1125 16.0369 26.085 16.4502L25.625 23.3493C25.5352 24.6971 25.4711 25.6349 25.3306 26.3406C25.1942 27.025 25.0039 27.3873 24.7305 27.6431C24.4571 27.8989 24.0829 28.0647 23.3909 28.1552C22.6775 28.2485 21.7375 28.25 20.3866 28.25H19.6133C18.2624 28.25 17.3224 28.2485 16.609 28.1552C15.917 28.0647 15.5429 27.8989 15.2695 27.6431C14.996 27.3873 14.8057 27.025 14.6694 26.3406C14.5288 25.6349 14.4648 24.6971 14.3749 23.3493L13.915 16.4502Z" fill="#6B7280"/>
<path d="M17.4253 18.2538C17.8375 18.2125 18.205 18.5133 18.2462 18.9254L18.7462 23.9254C18.7875 24.3376 18.4868 24.7051 18.0746 24.7463C17.6624 24.7875 17.2949 24.4868 17.2537 24.0747L16.7537 19.0747C16.7125 18.6625 17.0132 18.295 17.4253 18.2538Z" fill="#6B7280"/>
<path d="M22.5746 18.2538C22.9868 18.295 23.2875 18.6625 23.2462 19.0747L22.7462 24.0747C22.705 24.4868 22.3375 24.7875 21.9253 24.7463C21.5132 24.7051 21.2125 24.3376 21.2537 23.9254L21.7537 18.9254C21.7949 18.5133 22.1624 18.2125 22.5746 18.2538Z" fill="#6B7280"/>
</svg>
