<svg width="40" height="40" viewBox="0 0 40 40" fill="none" xmlns="http://www.w3.org/2000/svg">
<g opacity="0.5">
<rect x="0.5" y="0.5" width="39" height="39" rx="7.5" fill="white"/>
<rect x="0.5" y="0.5" width="39" height="39" rx="7.5" stroke="#E8E8E8"/>
<path d="M24.862 12.4872L26.549 10.7992C26.9007 10.4476 27.3777 10.25 27.875 10.25C28.3723 10.25 28.8493 10.4476 29.201 10.7992C29.5527 11.1509 29.7502 11.6279 29.7502 12.1252C29.7502 12.6226 29.5527 13.0996 29.201 13.4512L18.582 24.0702C18.0533 24.5986 17.4014 24.987 16.685 25.2002L14 26.0002L14.8 23.3152C15.0133 22.5989 15.4016 21.9469 15.93 21.4182L24.862 12.4872ZM24.862 12.4872L27.5 15.1252M26 22.0002V26.7502C26 27.347 25.7629 27.9193 25.341 28.3412C24.919 28.7632 24.3467 29.0002 23.75 29.0002H13.25C12.6533 29.0002 12.081 28.7632 11.659 28.3412C11.2371 27.9193 11 27.347 11 26.7502V16.2502C11 15.6535 11.2371 15.0812 11.659 14.6593C12.081 14.2373 12.6533 14.0002 13.25 14.0002H18" stroke="#6B7280" stroke-width="1.5" stroke-linecap="round" stroke-linejoin="round"/>
</g>
</svg>
