<svg width="30" height="30" viewBox="0 0 30 30" fill="none" xmlns="http://www.w3.org/2000/svg">
<rect x="0.1" y="0.1" width="29.8" height="29.8" rx="7.9" fill="white"/>
<rect x="0.1" y="0.1" width="29.8" height="29.8" rx="7.9" stroke="#6B7280" stroke-width="0.2"/>
<path fill-rule="evenodd" clip-rule="evenodd" d="M13.5911 6.87502H16.409C16.5893 6.8749 16.7464 6.8748 16.8947 6.89849C17.4808 6.99208 17.988 7.35762 18.2621 7.88403C18.3315 8.01727 18.3811 8.16634 18.438 8.33745L18.531 8.61654C18.5468 8.66378 18.5513 8.67715 18.5551 8.68768C18.701 9.09111 19.0794 9.36383 19.5082 9.3747C19.5195 9.37498 19.5333 9.37503 19.5834 9.37503H22.0834C22.4285 9.37503 22.7084 9.65485 22.7084 10C22.7084 10.3452 22.4285 10.625 22.0834 10.625H7.91663C7.57145 10.625 7.29163 10.3452 7.29163 10C7.29163 9.65485 7.57145 9.37503 7.91663 9.37503H10.4167C10.4667 9.37503 10.4805 9.37498 10.4918 9.3747C10.9207 9.36383 11.299 9.09113 11.445 8.6877C11.4488 8.67709 11.4532 8.66401 11.4691 8.61654L11.5621 8.33747C11.619 8.16637 11.6686 8.01728 11.7379 7.88403C12.0121 7.35762 12.5192 6.99208 13.1053 6.89849C13.2537 6.8748 13.4108 6.8749 13.5911 6.87502ZM12.5068 9.37503C12.5497 9.29085 12.5877 9.20337 12.6204 9.1129C12.6304 9.08543 12.6401 9.05619 12.6526 9.01861L12.7358 8.7691C12.8118 8.54118 12.8293 8.49469 12.8466 8.46137C12.938 8.2859 13.1071 8.16405 13.3024 8.13285C13.3395 8.12693 13.3892 8.12503 13.6294 8.12503H16.3706C16.6109 8.12503 16.6605 8.12693 16.6976 8.13285C16.893 8.16405 17.062 8.2859 17.1534 8.46137C17.1708 8.49469 17.1883 8.54117 17.2642 8.7691L17.3474 9.01846L17.3796 9.11292C17.4123 9.20338 17.4504 9.29085 17.4933 9.37503H12.5068Z" fill="#6B7280"/>
<path d="M9.9292 12.0418C9.90624 11.6974 9.60842 11.4368 9.26401 11.4597C8.9196 11.4827 8.65901 11.7805 8.68197 12.1249L9.06818 17.9181C9.13942 18.987 9.19697 19.8505 9.33195 20.528C9.47228 21.2324 9.71097 21.8208 10.204 22.2821C10.697 22.7433 11.2999 22.9423 12.0121 23.0355C12.6971 23.1251 13.5625 23.125 14.6338 23.125H15.3662C16.4375 23.125 17.3029 23.1251 17.9879 23.0355C18.7001 22.9423 19.3031 22.7433 19.7961 22.2821C20.2891 21.8208 20.5278 21.2324 20.6681 20.528C20.8031 19.8505 20.8606 18.987 20.9319 17.9181L21.3181 12.1249C21.3411 11.7805 21.0805 11.4827 20.736 11.4597C20.3916 11.4368 20.0938 11.6974 20.0709 12.0418L19.6876 17.7911C19.6127 18.9143 19.5593 19.6958 19.4422 20.2838C19.3286 20.8542 19.17 21.1561 18.9421 21.3692C18.7143 21.5824 18.4025 21.7206 17.8258 21.796C17.2313 21.8738 16.448 21.875 15.3223 21.875H14.6778C13.5521 21.875 12.7688 21.8738 12.1743 21.796C11.5976 21.7206 11.2858 21.5824 11.0579 21.3692C10.8301 21.1561 10.6715 20.8542 10.5579 20.2838C10.4407 19.6958 10.3874 18.9143 10.3125 17.7911L9.9292 12.0418Z" fill="#6B7280"/>
<path d="M12.8545 13.5448C13.198 13.5105 13.5043 13.761 13.5386 14.1045L13.9553 18.2712C13.9896 18.6146 13.739 18.9209 13.3956 18.9553C13.0521 18.9896 12.7458 18.739 12.7115 18.3956L12.2948 14.2289C12.2605 13.8854 12.511 13.5791 12.8545 13.5448Z" fill="#6B7280"/>
<path d="M17.1456 13.5448C17.489 13.5791 17.7396 13.8854 17.7053 14.2289L17.2886 18.3956C17.2543 18.739 16.948 18.9896 16.6045 18.9553C16.261 18.9209 16.0105 18.6146 16.0448 18.2712L16.4615 14.1045C16.4958 13.761 16.8021 13.5105 17.1456 13.5448Z" fill="#6B7280"/>
</svg>
